HIERARCHY
ROOT Hips
{
	OFFSET 0.00000 0.00000 0.00000
	CHANNELS 6 Xposition Yposition Zposition Zrotation Yrotation Xrotation 
	JOINT LHipJoint
	{
		OFFSET 0 0 0
		CHANNELS 3 Zrotation Yrotation Xrotation
		JOINT LeftUpLeg
		{
			OFFSET 1.52977 -1.71332 0.88991
			CHANNELS 3 Zrotation Yrotation Xrotation
			JOINT LeftLeg
			{
				OFFSET 2.23949 -6.15296 0.00000
				CHANNELS 3 Zrotation Yrotation Xrotation
				JOINT LeftFoot
				{
					OFFSET 2.68396 -7.37412 0.00000
					CHANNELS 3 Zrotation Yrotation Xrotation
					JOINT LeftToeBase
					{
						OFFSET 0.20538 -0.56428 2.52710
						CHANNELS 3 Zrotation Yrotation Xrotation
						End Site
						{
							OFFSET 0.00000 -0.00000 1.29919
						}
					}
				}
			}
		}
	}
	JOINT RHipJoint
	{
		OFFSET 0 0 0
		CHANNELS 3 Zrotation Yrotation Xrotation
		JOINT RightUpLeg
		{
			OFFSET -1.45689 -1.71333 0.88991
			CHANNELS 3 Zrotation Yrotation Xrotation
			JOINT RightLeg
			{
				OFFSET -2.36700 -6.50329 0.00000
				CHANNELS 3 Zrotation Yrotation Xrotation
				JOINT RightFoot
				{
					OFFSET -2.69814 -7.41308 0.00000
					CHANNELS 3 Zrotation Yrotation Xrotation
					JOINT RightToeBase
					{
						OFFSET -0.18734 -0.51471 2.37479
						CHANNELS 3 Zrotation Yrotation Xrotation
						End Site
						{
							OFFSET -0.00000 -0.00000 1.22113
						}
					}
				}
			}
		}
	}
	JOINT LowerBack
	{
		OFFSET 0 0 0
		CHANNELS 3 Zrotation Yrotation Xrotation
		JOINT Spine
		{
			OFFSET 0.04294 2.14638 -0.31163
			CHANNELS 3 Zrotation Yrotation Xrotation
			JOINT Spine1
			{
				OFFSET -0.00400 2.17216 0.01486
				CHANNELS 3 Zrotation Yrotation Xrotation
				JOINT Neck
				{
					OFFSET 0 0 0
					CHANNELS 3 Zrotation Yrotation Xrotation
					JOINT Neck1
					{
						OFFSET 0.03869 1.76598 0.14916
						CHANNELS 3 Zrotation Yrotation Xrotation
						JOINT Head
						{
							OFFSET -0.00760 1.75513 -0.18948
							CHANNELS 3 Zrotation Yrotation Xrotation
							End Site
							{
								OFFSET -0.00601 1.82444 -0.08310
							}
						}
					}
				}
				JOINT LeftShoulder
				{
					OFFSET 0 0 0
					CHANNELS 3 Zrotation Yrotation Xrotation
					JOINT LeftArm
					{
						OFFSET 3.73696 0.92058 0.01733
						CHANNELS 3 Zrotation Yrotation Xrotation
						JOINT LeftForeArm
						{
							OFFSET 5.22771 -0.00000 0.00000
							CHANNELS 3 Zrotation Yrotation Xrotation
							JOINT LeftHand
							{
								OFFSET 3.45251 -0.00000 0.00000
								CHANNELS 3 Zrotation Yrotation Xrotation
								JOINT LeftFingerBase
								{
									OFFSET 0 0 0
									CHANNELS 3 Zrotation Yrotation Xrotation
									JOINT LeftHandIndex1
									{
										OFFSET 0.55212 -0.00000 0.00000
										CHANNELS 3 Zrotation Yrotation Xrotation
										End Site
										{
											OFFSET 0.44513 -0.00000 0.00000
										}
									}
								}
								JOINT LThumb
								{
									OFFSET 0 0 0
									CHANNELS 3 Zrotation Yrotation Xrotation
									End Site
									{
										OFFSET 0.45193 -0.00000 0.45193
									}
								}
							}
						}
					}
				}
				JOINT RightShoulder
				{
					OFFSET 0 0 0
					CHANNELS 3 Zrotation Yrotation Xrotation
					JOINT RightArm
					{
						OFFSET -3.63819 0.83094 -0.13694
						CHANNELS 3 Zrotation Yrotation Xrotation
						JOINT RightForeArm
						{
							OFFSET -5.23980 -0.00000 -0.00000
							CHANNELS 3 Zrotation Yrotation Xrotation
							JOINT RightHand
							{
								OFFSET -3.48042 -0.00000 -0.00000
								CHANNELS 3 Zrotation Yrotation Xrotation
								JOINT RightFingerBase
								{
									OFFSET 0 0 0
									CHANNELS 3 Zrotation Yrotation Xrotation
									JOINT RightHandIndex1
									{
										OFFSET -0.61871 -0.00000 0.00000
										CHANNELS 3 Zrotation Yrotation Xrotation
										End Site
										{
											OFFSET -0.49882 -0.00000 0.00000
										}
									}
								}
								JOINT RThumb
								{
									OFFSET 0 0 0
									CHANNELS 3 Zrotation Yrotation Xrotation
									End Site
									{
										OFFSET -0.50644 -0.00000 0.50644
									}
								}
							}
						}
					}
				}
			}
		}
	}
}
MOTION
Frames: 10
Frame Time: 0.0273973
0.00 0.00 0.00 0 0 0 0 0 0 -21 0 0 0 0 0 0 0 0 0 0 0 0 0 0 21 0 0 0 0 0 0 0 0 0 0 0 0 0 0 0 0 0 0 0 0 0 0 -16 0 0 21 0 0 11 0 0 0 -8 0 0 0 0 0 0 0 0 0 0 0 0 0 0 0 0 0 0 0 0 8 0 0 0 0 0 0 0 0 0 0 0 0 0 0 0 0 0
0.00 0.00 0.00 210.9860 -86.5829 146.1230 0.0000 0.0000 0.0000 -13.9560 5.9847 5.1930 0.2321 3.1007 8.5592 -0.1035 16.0428 -21.7153 0.0064 0.5174 1.4216 0.0000 0.0000 0.0000 15.6585 6.8761 -1.4469 -2.1071 -9.0858 26.0639 -1.4967 -6.6302 -26.3400 -0.0748 -1.7640 4.8539 2.3285 -0.5359 0.6123 0.3480 -0.7857 2.9998 -0.9613 -0.3570 2.7106 1.6191 -1.0739 -2.9632 3.0350 -1.4501 -6.3412 0.6761 -0.8586 -1.4499 -0.0000 -0.0000 0.0000 -89.6354 -0.9957 26.7003 12.0642 -19.9008 -2.1241 -0.0000 0.0000 -6.9364 22.5346 20.0314 8.0890 -7.1250 0.0000 -0.0000 -5.9833 51.4241 -0.9496 -0.0000 -0.0000 0.0000 91.1496 1.1222 16.6189 -12.7413 20.9070 -2.3602 0.0000 0.0000 13.7833 -18.2496 -5.1251 1.6872 7.1250 -0.0000 -0.0000 7.0144 -35.3038 1.6811
0.00 0.00 0.00 215.3550 -86.7815 141.6010 0.0000 0.0000 0.0000 -13.6078 5.4290 5.4347 0.2363 3.1288 8.6375 -0.1128 16.2886 -21.9821 0.0103 0.6558 1.8022 0.0000 0.0000 0.0000 15.9477 6.1458 -1.8906 -2.1963 -9.2636 26.6234 -1.5342 -6.1174 -26.3009 -0.0840 -1.8695 5.1452 1.9980 -0.3989 0.6319 0.1915 -0.5933 2.9765 -0.9334 -0.2665 2.6827 1.6119 -1.2245 -4.8068 2.4218 -1.7837 -0.3885 0.4385 -0.8791 0.6811 0.0000 0.0000 0.0000 -48.0435 -8.9391 20.4026 13.3146 -21.7464 -2.5687 -0.0000 0.0000 -14.2754 20.1684 24.3347 8.6066 -7.1250 0.0000 -0.0000 -9.9516 55.4272 -2.5656 0.0000 0.0000 0.0000 52.6184 13.6271 -7.2316 -9.7993 16.4250 -1.4177 0.0000 0.0000 17.5464 -18.8588 -9.8325 3.3383 7.1250 -0.0000 -0.0000 7.1488 -40.2577 0.8407
0.00 0.00 0.00 256.5790 -88.3549 99.2465 0.0000 0.0000 0.0000 -13.0255 6.9940 2.9276 0.4793 4.4397 12.3171 0.0224 13.3886 -19.2966 0.0157 -0.8081 -2.2210 0.0000 0.0000 0.0000 15.7750 4.4526 -1.2818 -2.3165 -9.4963 27.3604 -1.6453 -6.1174 -27.0939 -0.0911 -1.9463 5.3574 1.2184 -0.6892 2.1502 -0.1172 -0.9411 2.6646 -0.7954 -0.4636 1.5042 1.5398 -1.5763 -6.1795 2.3315 -2.2994 0.3447 0.3985 -1.1177 1.1481 0.0000 -0.0000 0.0000 -5.0946 -7.5402 8.6534 12.4774 -20.5168 -2.2668 -0.0000 0.0000 -36.7594 26.7944 25.5804 12.3010 -7.1250 0.0000 -0.0000 -3.3315 58.1525 -1.0728 0.0000 -0.0000 0.0000 10.8991 14.5057 -32.7405 -8.4706 14.3129 -1.0655 0.0000 0.0000 8.9094 -23.2422 -13.2595 5.6258 7.1250 -0.0000 -0.0000 3.7969 -44.3305 0.0628
0.00 0.00 0.00 300.0180 -86.0554 55.0975 0.0000 0.0000 0.0000 -10.5490 8.6805 -4.0797 1.5060 7.7508 21.9598 0.5403 7.7224 -18.7986 0.1152 -2.1885 -6.0270 0.0000 0.0000 0.0000 17.0185 2.3148 -2.1316 -2.5968 -10.0118 29.0149 -1.6658 -5.9139 -27.1201 -0.0651 -1.6457 4.5275 1.5223 -1.3438 4.5146 1.1534 -1.7885 2.7329 0.4043 -0.9100 0.2672 3.5096 -1.2979 -1.7124 -2.5162 -2.1176 -10.2275 -1.3740 -1.1888 -3.0507 -0.0000 0.0000 0.0000 -8.6004 -11.4958 -18.6522 11.7812 -19.4757 -2.0287 -0.0000 0.0000 -39.4367 24.7254 25.2868 11.1278 -7.1250 0.0000 -0.0000 -5.5049 57.3740 -1.6717 -0.0000 0.0000 0.0000 11.4077 14.4806 -47.9417 -9.4568 15.8854 -1.3224 0.0000 -0.0000 -4.4006 -23.2832 -17.3026 7.2933 7.1250 -0.0000 -0.0000 4.5425 -48.6602 -0.4109
0.00 0.00 0.00 298.0920 -83.2066 56.5495 0.0000 0.0000 0.0000 -8.2745 8.6954 -9.1396 2.6745 10.1484 29.4588 0.9085 4.7834 -20.3483 0.1559 -2.5440 -7.0118 0.0000 0.0000 0.0000 16.9731 -1.4038 -9.3408 -4.3848 -12.6556 38.0925 -1.1222 -3.1463 -21.3732 -0.0012 -0.2259 0.6206 2.0270 -1.6481 8.2489 2.6069 -2.0701 2.6763 1.7535 -1.0814 -1.8253 4.3806 -0.5116 5.0734 -6.6493 -3.1401 -29.5747 -2.7439 -1.6650 -10.4043 0.0000 0.0000 0.0000 -12.1326 -14.3284 -47.0948 19.7578 -30.3494 -5.4084 -0.0000 0.0000 -69.0904 30.4533 23.3614 13.1234 -7.1250 0.0000 -0.0000 1.4433 56.5878 0.4101 0.0000 0.0000 0.0000 13.7763 11.4508 -56.5771 -15.8538 25.3220 -3.5832 0.0000 -0.0000 -37.2022 -30.5720 -23.7531 13.3845 7.1250 -0.0000 -0.0000 -1.4814 -57.0464 0.4373
0.00 0.00 0.00 290.4380 -83.3841 63.6811 0.0000 0.0000 0.0000 -8.9441 10.4556 -10.6202 2.9744 10.6535 31.1201 0.9909 4.1447 -20.7343 0.1624 -2.5961 -7.1563 0.0000 0.0000 0.0000 13.0386 -4.6394 -21.6558 -8.5155 -16.4856 54.3988 -0.3253 -0.2708 -10.8755 -0.0089 0.6079 -1.6706 1.2464 -1.4271 12.3743 2.3165 -1.7569 2.8105 1.9929 -0.9312 -3.9487 3.1775 0.4116 6.7631 -6.5018 -4.0700 -41.2559 -2.5659 -2.2953 -16.0210 0.0000 -0.0000 0.0000 -16.0798 -12.4835 -51.5491 39.4780 -47.7576 -18.0519 -0.0000 0.0000 -99.2292 31.1368 21.2406 12.3452 -7.1250 0.0000 -0.0000 2.6368 54.3838 0.6083 0.0000 -0.0000 0.0000 19.0619 7.4904 -53.9721 -26.3993 37.6003 -9.1302 0.0000 -0.0000 -61.4243 -34.4198 -22.6466 14.7802 7.1250 -0.0000 -0.0000 -6.0744 -56.7054 1.7473
0.00 0.00 0.00 282.3660 -84.6376 70.9106 0.0000 0.0000 0.0000 -10.5002 12.4418 -11.3529 3.2075 11.0237 32.3598 1.0603 3.6735 -21.1013 0.1617 -2.5911 -7.1423 0.0000 0.0000 0.0000 8.2992 -6.8994 -32.8352 -13.5336 -18.9664 70.7748 -0.0360 0.9958 -3.3757 -0.0285 1.0898 -2.9959 0.3112 -1.1444 15.7522 0.9860 -1.5617 3.2659 1.1841 -0.8353 -5.3301 2.0008 0.9787 5.8761 -5.5634 -4.4641 -46.0223 -1.9332 -2.6552 -18.6224 -0.0000 0.0000 0.0000 -17.3378 -11.7952 -52.5907 65.5614 -57.6184 -39.0048 -0.0000 0.0000 -111.9230 24.9818 21.7572 9.7986 -7.1250 0.0000 -0.0000 -4.0046 53.6995 -0.8577 -0.0000 0.0000 0.0000 23.9459 4.0153 -49.6480 -38.7287 47.2984 -17.4991 0.0000 -0.0000 -74.1661 -30.5351 -20.6987 11.7770 7.1250 -0.0000 -0.0000 -2.0881 -53.6539 0.4445
0.00 0.00 0.00 275.2660 -85.5938 77.2310 0.0000 0.0000 0.0000 -11.5342 13.6267 -11.8475 3.4883 11.4464 33.8005 1.1427 3.3057 -21.6329 0.1637 -2.6071 -7.1866 0.0000 0.0000 0.0000 5.0945 -8.3962 -39.4416 -16.9642 -19.7776 81.0924 0.0075 1.6350 -0.0042 -0.0474 1.4049 -3.8637 -0.1448 -0.9721 17.6913 -0.1825 -1.5243 3.7680 0.2374 -0.8315 -5.8640 1.2618 1.2963 5.1995 -5.0288 -4.4471 -47.5863 -1.5516 -2.6864 -19.4700 -0.0000 -0.0000 0.0000 -17.1408 -11.9423 -52.6115 85.3497 -59.9181 -55.9738 -0.0000 0.0000 -116.1330 19.2840 22.5412 7.6393 -7.1250 0.0000 -0.0000 -10.1072 53.4341 -2.1134 -0.0000 -0.0000 0.0000 26.7158 1.7855 -46.6446 -48.7031 52.4589 -25.1421 0.0000 -0.0000 -79.4911 -25.6818 -20.0984 9.3831 7.1250 -0.0000 -0.0000 2.8321 -52.0564 -0.4923
0.00 0.00 0.00 263.4370 -86.5931 88.0101 0.0000 0.0000 0.0000 -12.5511 14.8007 -12.2141 3.8669 11.9812 35.6655 1.2552 2.9344 -22.4038 0.1675 -2.6367 -7.2689 0.0000 0.0000 0.0000 1.7181 -10.2130 -45.7089 -20.4348 -19.9955 91.2714 0.0099 2.3695 2.5501 -0.0693 1.6981 -4.6719 -0.4592 -0.7927 19.5275 -1.5860 -1.5297 4.5065 -1.0528 -0.8668 -6.0830 0.4298 1.6817 4.7757 -4.6019 -4.1157 -48.4378 -1.2454 -2.4996 -19.9104 0.0000 0.0000 0.0000 -16.3120 -12.4841 -51.9795 105.0880 -59.1221 -73.0281 -0.0000 0.0000 -118.6320 12.3930 23.3301 4.9734 -7.1250 0.0000 -0.0000 -17.2964 52.9693 -3.4742 0.0000 0.0000 0.0000 29.1227 -0.5343 -43.3080 -61.4355 56.6805 -35.5381 0.0000 -0.0000 -83.3467 -19.1783 -19.9015 6.7522 7.1250 -0.0000 -0.0000 9.2537 -50.7223 -1.3145
